<svg width="726" height="183" viewBox="0 0 726 183" fill="none" xmlns="http://www.w3.org/2000/svg">
<path d="M400.081 29.8586C392.469 30.2906 377.34 31.863 368.001 37.5802C367.356 37.9746 366.991 38.6761 366.991 39.4095V89.9516C366.991 91.5559 368.745 92.5699 370.224 91.8254C379.834 86.9888 393.731 85.6692 400.602 85.3081C402.948 85.1845 404.772 83.3037 404.772 81.0494V34.1229C404.773 31.6629 402.64 29.7142 400.081 29.8586ZM361.538 37.5802C352.199 31.863 337.07 30.292 329.458 29.8586C326.9 29.7142 324.766 31.6629 324.766 34.1229V81.0508C324.766 83.3065 326.59 85.1872 328.936 85.3095C335.81 85.6706 349.714 86.9916 359.323 91.8309C360.799 92.574 362.547 91.5614 362.547 89.9613V39.3845C362.547 38.6497 362.183 37.976 361.538 37.5802Z" fill="#F1F1F1"/>
<circle cx="365" cy="61" r="58" stroke="#0358E4" stroke-width="6"/>
<circle cx="665" cy="122" r="58" stroke="#0358E4" stroke-width="6"/>
<circle cx="61" cy="122" r="58" stroke="#0358E4" stroke-width="6"/>
<path d="M65.1597 122L72.08 129.854L81.3856 135.759L83.0081 122.048L81.3856 108.644L71.9015 113.832L65.1597 122Z" fill="#F1F1F1"/>
<path d="M25 134.486V146.167C25 148.837 27.1783 151 29.8677 151H41.6315L44.0654 142.171L41.6315 134.486L33.5591 132.069L25 134.486Z" fill="#F1F1F1"/>
<path d="M41.6315 93L25 109.514L33.5591 111.93L41.6315 109.514L44.0249 101.934L41.6315 93Z" fill="#F1F1F1"/>
<path d="M41.6315 109.515H25V134.487H41.6315V109.515Z" fill="#F1F1F1"/>
<path d="M92.0167 99.9927L81.3888 108.644V135.759L92.0655 144.451C93.6636 145.692 96.0002 144.56 96.0002 142.542V101.862C96.0002 99.8196 93.6109 98.6999 92.0167 99.9927ZM65.1629 122V134.486H41.6353V151H76.521C79.2104 151 81.3888 148.837 81.3888 146.167V135.759L65.1629 122Z" fill="#F1F1F1"/>
<path d="M76.521 93H41.6353V109.514H65.1629V122L81.3888 108.652V97.8333C81.3888 95.163 79.2103 93 76.521 93Z" fill="#F1F1F1"/>
<line x1="121.016" y1="123" x2="254.015" y2="124.031" stroke="#0358E4" stroke-width="4" stroke-dasharray="8 8"/>
<line x1="252.287" y1="126.012" x2="252" y2="61.0088" stroke="#0358E4" stroke-width="4" stroke-dasharray="8 8"/>
<line x1="254" y1="60" x2="306" y2="60" stroke="#0358E4" stroke-width="4" stroke-dasharray="8 8"/>
<line x1="424" y1="59" x2="476" y2="59" stroke="#0358E4" stroke-width="4" stroke-dasharray="8 8"/>
<line x1="474.287" y1="126.012" x2="474" y2="61.0088" stroke="#0358E4" stroke-width="4" stroke-dasharray="8 8"/>
<line x1="476.016" y1="123" x2="609.015" y2="124.031" stroke="#0358E4" stroke-width="4" stroke-dasharray="8 8"/>
<path d="M682.103 92H673.252L681.112 104.192L664.486 92H655.622L663.49 107.976L646.864 92H638L645.734 112.621L638 152.864H646.864L663.486 109.715L655.622 152.864H664.481L681.112 105.932L673.248 152.864H682.103L698.864 101.315L682.103 92Z" fill="white"/>
</svg>
