<svg width="434" height="123" viewBox="0 0 434 123" fill="none" xmlns="http://www.w3.org/2000/svg">
<circle cx="373" cy="62" r="58" stroke="black" stroke-width="6"/>
<circle cx="61" cy="61" r="58" stroke="black" stroke-width="6"/>
<line x1="122" y1="62" x2="316" y2="62" stroke="black" stroke-width="4" stroke-dasharray="8 8"/>
<path d="M73.9 67.6H47.5C46.6248 67.6 45.7854 67.9477 45.1665 68.5665C44.5477 69.1854 44.2 70.0248 44.2 70.9C44.2 71.7752 44.5477 72.6146 45.1665 73.2335C45.7854 73.8523 46.6248 74.2 47.5 74.2H73.9C74.7752 74.2 75.6146 73.8523 76.2335 73.2335C76.8523 72.6146 77.2 71.7752 77.2 70.9C77.2 70.0248 76.8523 69.1854 76.2335 68.5665C75.6146 67.9477 74.7752 67.6 73.9 67.6ZM73.9 54.4H54.1C53.2248 54.4 52.3854 54.7477 51.7666 55.3665C51.1477 55.9854 50.8 56.8248 50.8 57.7C50.8 58.5752 51.1477 59.4146 51.7666 60.0335C52.3854 60.6523 53.2248 61 54.1 61H73.9C74.7752 61 75.6146 60.6523 76.2335 60.0335C76.8523 59.4146 77.2 58.5752 77.2 57.7C77.2 56.8248 76.8523 55.9854 76.2335 55.3665C75.6146 54.7477 74.7752 54.4 73.9 54.4ZM87.1 34.6H77.2V31.3C77.2 30.4248 76.8523 29.5854 76.2335 28.9665C75.6146 28.3477 74.7752 28 73.9 28C73.0248 28 72.1854 28.3477 71.5666 28.9665C70.9477 29.5854 70.6 30.4248 70.6 31.3V34.6H64V31.3C64 30.4248 63.6523 29.5854 63.0335 28.9665C62.4146 28.3477 61.5752 28 60.7 28C59.8248 28 58.9854 28.3477 58.3666 28.9665C57.7477 29.5854 57.4 30.4248 57.4 31.3V34.6H50.8V31.3C50.8 30.4248 50.4523 29.5854 49.8335 28.9665C49.2146 28.3477 48.3752 28 47.5 28C46.6248 28 45.7854 28.3477 45.1665 28.9665C44.5477 29.5854 44.2 30.4248 44.2 31.3V34.6H34.3C33.4248 34.6 32.5854 34.9477 31.9665 35.5665C31.3477 36.1854 31 37.0248 31 37.9V84.1C31 86.7256 32.043 89.2437 33.8996 91.1004C35.7563 92.957 38.2744 94 40.9 94H80.5C83.1256 94 85.6438 92.957 87.5004 91.1004C89.357 89.2437 90.4 86.7256 90.4 84.1V37.9C90.4 37.0248 90.0523 36.1854 89.4335 35.5665C88.8146 34.9477 87.9752 34.6 87.1 34.6ZM83.8 84.1C83.8 84.9752 83.4523 85.8146 82.8335 86.4335C82.2146 87.0523 81.3752 87.4 80.5 87.4H40.9C40.0248 87.4 39.1854 87.0523 38.5665 86.4335C37.9477 85.8146 37.6 84.9752 37.6 84.1V41.2H44.2V44.5C44.2 45.3752 44.5477 46.2146 45.1665 46.8335C45.7854 47.4523 46.6248 47.8 47.5 47.8C48.3752 47.8 49.2146 47.4523 49.8335 46.8335C50.4523 46.2146 50.8 45.3752 50.8 44.5V41.2H57.4V44.5C57.4 45.3752 57.7477 46.2146 58.3666 46.8335C58.9854 47.4523 59.8248 47.8 60.7 47.8C61.5752 47.8 62.4146 47.4523 63.0335 46.8335C63.6523 46.2146 64 45.3752 64 44.5V41.2H70.6V44.5C70.6 45.3752 70.9477 46.2146 71.5666 46.8335C72.1854 47.4523 73.0248 47.8 73.9 47.8C74.7752 47.8 75.6146 47.4523 76.2335 46.8335C76.8523 46.2146 77.2 45.3752 77.2 44.5V41.2H83.8V84.1Z" fill="#F1F1F1"/>
<path d="M342.071 57.1429C346.878 57.1429 350.786 53.235 350.786 48.4286C350.786 43.6221 346.878 39.7143 342.071 39.7143C337.265 39.7143 333.357 43.6221 333.357 48.4286C333.357 53.235 337.265 57.1429 342.071 57.1429ZM403.071 57.1429C407.878 57.1429 411.786 53.235 411.786 48.4286C411.786 43.6221 407.878 39.7143 403.071 39.7143C398.265 39.7143 394.357 43.6221 394.357 48.4286C394.357 53.235 398.265 57.1429 403.071 57.1429ZM407.429 61.5H398.714C396.318 61.5 394.153 62.4667 392.573 64.0326C398.061 67.0417 401.955 72.4746 402.799 78.9286H411.786C414.196 78.9286 416.143 76.9815 416.143 74.5714V70.2143C416.143 65.4078 412.235 61.5 407.429 61.5ZM372.571 61.5C381 61.5 387.821 54.6783 387.821 46.25C387.821 37.8217 381 31 372.571 31C364.143 31 357.321 37.8217 357.321 46.25C357.321 54.6783 364.143 61.5 372.571 61.5ZM383.029 65.8571H381.898C379.066 67.2188 375.921 68.0357 372.571 68.0357C369.222 68.0357 366.09 67.2188 363.244 65.8571H362.114C353.454 65.8571 346.429 72.883 346.429 81.5429V85.4643C346.429 89.0725 349.356 92 352.964 92H392.179C395.787 92 398.714 89.0725 398.714 85.4643V81.5429C398.714 72.883 391.688 65.8571 383.029 65.8571ZM352.569 64.0326C350.99 62.4667 348.825 61.5 346.429 61.5H337.714C332.908 61.5 329 65.4078 329 70.2143V74.5714C329 76.9815 330.947 78.9286 333.357 78.9286H342.33C343.188 72.4746 347.082 67.0417 352.569 64.0326Z" fill="#F1F1F1"/>
</svg>
