<svg width="49" height="26" viewBox="0 0 49 26" fill="none" xmlns="http://www.w3.org/2000/svg">
<path d="M0.399141 25.46L3.27914 24.38L13.1791 0.439999H14.2591L24.5191 24.92L26.3191 25.46V26H21.9991C20.7511 26 19.7311 25.724 18.9391 25.172C18.1471 24.596 17.5591 23.852 17.1751 22.94L15.3391 18.62H6.73514L4.35914 24.38L7.05914 25.46V26H0.399141V25.46ZM7.09514 17.72H14.9791L11.0191 8.252L7.09514 17.72ZM27.3879 25.46L29.5479 24.92V1.88L27.3879 1.34V0.799998H37.4679C41.4519 0.799998 44.3079 1.46 46.0359 2.78C47.7639 4.076 48.6279 5.996 48.6279 8.54C48.6279 11.084 47.7639 13.016 46.0359 14.336C44.3079 15.632 41.4519 16.28 37.4679 16.28H35.4879V24.92L37.6479 25.46V26H27.3879V25.46ZM37.4679 15.38C38.9799 15.38 40.1919 14.804 41.1039 13.652C42.0399 12.5 42.5079 10.796 42.5079 8.54C42.5079 6.308 42.0399 4.616 41.1039 3.464C40.1919 2.288 38.9799 1.7 37.4679 1.7H35.4879V15.38H37.4679Z" fill="black"/>
</svg>
