<svg width="122" height="122" viewBox="0 0 122 122" fill="none" xmlns="http://www.w3.org/2000/svg">
<circle cx="61" cy="61" r="58" stroke="black" stroke-width="6" stroke-dasharray="8 8"/>
<path d="M96.9731 58.8371C93.6595 43.8564 88.6727 35.8607 81.2754 33.6766C79.7204 33.2205 78.1075 32.9927 76.487 33.0002C74.3451 33.0002 72.4798 33.522 70.5066 34.075C68.1288 34.7421 65.4277 35.4998 61.4892 35.4998C57.5507 35.4998 54.848 34.7437 52.4655 34.0766C50.4908 33.522 48.627 33.0002 46.4914 33.0002C44.8157 32.9944 43.1474 33.2215 41.5343 33.6751C34.176 35.8498 29.1923 43.8424 25.8303 58.8277C22.2152 74.9535 23.9946 85.1348 30.8202 87.4969C31.7558 87.8267 32.7402 87.9968 33.7323 88C38.4082 88 42.1576 84.1053 44.7197 80.9167C47.6146 77.3078 51.0032 75.4768 61.4892 75.4768C70.855 75.4768 74.731 76.7469 78.079 80.9167C80.1833 83.5382 82.1721 85.3723 84.1562 86.5268C86.7949 88.0609 89.432 88.4015 91.9926 87.5219C96.0264 86.1456 98.3385 82.5071 98.8666 76.7048C99.2681 72.2554 98.6494 66.4109 96.9731 58.8371ZM53.9903 57.9965H48.991V62.9958C48.991 63.6588 48.7276 64.2946 48.2589 64.7633C47.7901 65.2321 47.1543 65.4955 46.4914 65.4955C45.8284 65.4955 45.1926 65.2321 44.7238 64.7633C44.2551 64.2946 43.9917 63.6588 43.9917 62.9958V57.9965H38.9924C38.3295 57.9965 37.6937 57.7332 37.2249 57.2644C36.7562 56.7956 36.4928 56.1599 36.4928 55.4969C36.4928 54.834 36.7562 54.1982 37.2249 53.7294C37.6937 53.2606 38.3295 52.9973 38.9924 52.9973H43.9917V47.998C43.9917 47.3351 44.2551 46.6993 44.7238 46.2305C45.1926 45.7617 45.8284 45.4984 46.4914 45.4984C47.1543 45.4984 47.7901 45.7617 48.2589 46.2305C48.7276 46.6993 48.991 47.3351 48.991 47.998V52.9973H53.9903C54.6532 52.9973 55.289 53.2606 55.7578 53.7294C56.2266 54.1982 56.4899 54.834 56.4899 55.4969C56.4899 56.1599 56.2266 56.7956 55.7578 57.2644C55.289 57.7332 54.6532 57.9965 53.9903 57.9965ZM67.1134 58.6215C66.4954 58.6215 65.8913 58.4382 65.3775 58.0949C64.8636 57.7515 64.4631 57.2636 64.2267 56.6926C63.9902 56.1217 63.9283 55.4934 64.0489 54.8873C64.1694 54.2812 64.467 53.7245 64.904 53.2875C65.341 52.8505 65.8977 52.553 66.5038 52.4324C67.1099 52.3118 67.7381 52.3737 68.3091 52.6102C68.88 52.8467 69.368 53.2472 69.7113 53.761C70.0547 54.2748 70.2379 54.8789 70.2379 55.4969C70.2379 56.3256 69.9087 57.1203 69.3228 57.7063C68.7368 58.2923 67.942 58.6215 67.1134 58.6215ZM73.9874 65.4955C73.3691 65.4955 72.7646 65.312 72.2507 64.9683C71.7367 64.6247 71.3362 64.1362 71.0999 63.5648C70.8637 62.9934 70.8022 62.3648 70.9234 61.7585C71.0446 61.1522 71.343 60.5954 71.7808 60.1588C72.2185 59.7221 72.776 59.4251 73.3826 59.3055C73.9892 59.1858 74.6177 59.2488 75.1885 59.4865C75.7593 59.7241 76.2467 60.1258 76.5891 60.6407C76.9315 61.1556 77.1135 61.7604 77.1119 62.3787C77.1098 63.206 76.7797 63.9988 76.194 64.5831C75.6083 65.1673 74.8147 65.4955 73.9874 65.4955ZM73.9874 51.7475C73.3694 51.7475 72.7653 51.5642 72.2515 51.2209C71.7376 50.8775 71.3371 50.3896 71.1007 49.8186C70.8642 49.2477 70.8023 48.6194 70.9229 48.0133C71.0434 47.4072 71.341 46.8505 71.778 46.4135C72.215 45.9765 72.7717 45.679 73.3778 45.5584C73.9839 45.4378 74.6121 45.4997 75.1831 45.7362C75.754 45.9727 76.242 46.3732 76.5853 46.887C76.9287 47.4008 77.1119 48.0049 77.1119 48.6229C77.1119 49.4516 76.7827 50.2463 76.1968 50.8323C75.6108 51.4183 74.816 51.7475 73.9874 51.7475ZM80.8614 58.6215C80.2434 58.6215 79.6393 58.4382 79.1255 58.0949C78.6116 57.7515 78.2112 57.2636 77.9747 56.6926C77.7382 56.1217 77.6763 55.4934 77.7969 54.8873C77.9174 54.2812 78.215 53.7245 78.652 53.2875C79.089 52.8505 79.6457 52.553 80.2518 52.4324C80.8579 52.3118 81.4861 52.3737 82.0571 52.6102C82.628 52.8467 83.116 53.2472 83.4593 53.761C83.8027 54.2748 83.9859 54.8789 83.9859 55.4969C83.9859 56.3256 83.6567 57.1203 83.0708 57.7063C82.4848 58.2923 81.69 58.6215 80.8614 58.6215Z" fill="#F1F1F1"/>
</svg>
