<svg width="726" height="183" viewBox="0 0 726 183" fill="none" xmlns="http://www.w3.org/2000/svg">
<path d="M52.1988 145V144.04L56.6788 142.76V107.624L49.9588 112.36L48.6788 110.76L60.3268 100.2H67.2388V142.76L71.7188 144.04V145H52.1988Z" fill="#F1F1F1"/>
<path d="M661.641 145.96C658.697 145.96 656.18 145.555 654.089 144.744C652.041 143.933 650.484 142.888 649.417 141.608C648.393 140.328 647.881 139.005 647.881 137.64C647.881 136.189 648.308 135.037 649.161 134.184C650.057 133.288 651.231 132.84 652.681 132.84C653.023 132.84 653.364 132.883 653.705 132.968C654.047 133.011 654.281 133.032 654.409 133.032L655.241 133.16V143.4C655.284 143.4 655.732 143.571 656.585 143.912C657.695 144.211 658.953 144.36 660.361 144.36C663.348 144.36 665.631 143.464 667.209 141.672C668.831 139.837 669.641 137.107 669.641 133.48C669.641 129.768 668.852 126.973 667.273 125.096C665.737 123.219 663.647 122.28 661.001 122.28H657.801V120.68H661.001C662.921 120.68 664.521 119.827 665.801 118.12C667.081 116.413 667.721 113.96 667.721 110.76C667.721 107.56 667.06 105.107 665.737 103.4C664.415 101.693 662.729 100.84 660.681 100.84C659.572 100.84 658.505 101.011 657.481 101.352C657.353 101.395 656.927 101.544 656.201 101.8V112.04L655.369 112.232C654.687 112.317 654.111 112.36 653.641 112.36C652.191 112.36 651.017 111.933 650.121 111.08C649.268 110.184 648.841 109.011 648.841 107.56C648.841 106.237 649.353 104.936 650.377 103.656C651.401 102.376 652.895 101.331 654.857 100.52C656.863 99.6667 659.231 99.24 661.961 99.24C665.545 99.24 668.575 99.7733 671.049 100.84C673.567 101.864 675.444 103.251 676.681 105C677.961 106.749 678.601 108.669 678.601 110.76C678.601 113.192 677.983 115.133 676.745 116.584C675.508 117.992 673.887 119.123 671.881 119.976C669.919 120.744 667.679 121.192 665.161 121.32V121.64C667.977 121.768 670.537 122.259 672.841 123.112C677.961 125.16 680.521 128.616 680.521 133.48C680.521 137.235 678.964 140.264 675.849 142.568C672.777 144.829 668.041 145.96 661.641 145.96Z" fill="#F1F1F1"/>
<path d="M348.514 80.12C348.514 77.6027 349.004 75.32 349.986 73.272C351.01 71.1813 352.247 69.368 353.698 67.832C355.148 66.296 357.047 64.4827 359.394 62.392C361.57 60.472 363.276 58.872 364.514 57.592C365.751 56.2693 366.796 54.7973 367.65 53.176C368.503 51.512 368.93 49.72 368.93 47.8C368.93 44.984 368.247 42.7867 366.882 41.208C365.516 39.6293 363.746 38.84 361.57 38.84C360.332 38.84 359.074 39.0107 357.794 39.352L356.45 39.8V50.04L355.618 50.232C354.935 50.3173 354.359 50.36 353.89 50.36C352.439 50.36 351.266 49.9333 350.37 49.08C349.516 48.184 349.09 47.0107 349.09 45.56C349.09 44.1947 349.602 42.872 350.626 41.592C351.692 40.312 353.25 39.2667 355.298 38.456C357.388 37.6453 359.906 37.24 362.85 37.24C368.61 37.24 372.876 38.392 375.65 40.696C378.423 43 379.81 46.2213 379.81 50.36C379.81 52.9627 379.127 55.2027 377.762 57.08C376.439 58.9573 374.796 60.5147 372.834 61.752C370.914 62.9893 368.332 64.3973 365.09 65.976C362.359 67.2987 360.14 68.472 358.434 69.496C356.77 70.4773 355.212 71.672 353.762 73.08C352.354 74.488 351.351 76.088 350.754 77.88H374.434C374.732 75.576 375.458 73.656 376.61 72.12C377.079 71.3947 377.634 70.7547 378.274 70.2H380.194V83H348.514V80.12Z" fill="#F1F1F1"/>
<circle cx="365" cy="61" r="58" stroke="black" stroke-width="6"/>
<circle cx="665" cy="122" r="58" stroke="black" stroke-width="6"/>
<circle cx="61" cy="122" r="58" stroke="black" stroke-width="6"/>
<line x1="121.016" y1="123" x2="254.015" y2="124.031" stroke="black" stroke-width="4" stroke-dasharray="8 8"/>
<line x1="252.287" y1="126.012" x2="252" y2="61.0088" stroke="black" stroke-width="4" stroke-dasharray="8 8"/>
<line x1="254" y1="60" x2="306" y2="60" stroke="black" stroke-width="4" stroke-dasharray="8 8"/>
<line x1="424" y1="59" x2="476" y2="59" stroke="black" stroke-width="4" stroke-dasharray="8 8"/>
<line x1="474.287" y1="126.012" x2="474" y2="61.0088" stroke="black" stroke-width="4" stroke-dasharray="8 8"/>
<line x1="476.016" y1="123" x2="609.015" y2="124.031" stroke="black" stroke-width="4" stroke-dasharray="8 8"/>
</svg>
